# xmcd
#
# Track frame offsets: 
#        150
#        20211
#        44065
#        60372
#        78005
#        97781
#        114737
#        138274
#        159711
#        179821
#        196850
#
# Disc length: 2870 seconds
#
# Revision: 0
# Processed by: cddbd v1.5.2PL0 Copyright (c) Steve Scherf et al.
# Submitted via: ExactAudioCopy v0.99pb3
#
DISCID=910b340b
DTITLE=Boyd Small - Diamond Boy
DYEAR=2007
DGENRE=Blues
TTITLE0=Glad Rags
TTITLE1=Lemon Squeezer
TTITLE2=Hat Back Blues
TTITLE3=Country Girl
TTITLE4=Cherry Red
TTITLE5=Del Ray
TTITLE6=Diamond Boy
TTITLE7=That Little Girl
TTITLE8=Whipping Boy
TTITLE9=Look Don't Touch
TTITLE10=Make Mamas Proud
EXTD=
EXTT0=
EXTT1=
EXTT2=
EXTT3=
EXTT4=
EXTT5=
EXTT6=
EXTT7=
EXTT8=
EXTT9=
EXTT10=
PLAYORDER=
